<?xml version="1.0" standalone="no"?><!DOCTYPE svg PUBLIC "-//W3C//DTD SVG 1.1//EN" "http://www.w3.org/Graphics/SVG/1.1/DTD/svg11.dtd"><svg t="1597224122737" class="icon" viewBox="0 0 1080 1024" version="1.1" xmlns="http://www.w3.org/2000/svg" p-id="9753" xmlns:xlink="http://www.w3.org/1999/xlink" width="210.9375" height="200"><defs><style type="text/css"></style></defs><path d="M227.4304 947.5712a44.2368 44.2368 0 0 1-44.176-45.02506667V672.5632a44.96533333 44.96533333 0 1 1 89.08053334 0v229.98293333a44.90453333 44.90453333 0 0 1-44.90453334 45.02506667z m221.54773334 0a44.2368 44.2368 0 0 1-44.1152-45.02506667V538.336a44.90453333 44.90453333 0 0 1 89.08053333 0v363.4816a44.90453333 44.90453333 0 0 1-44.90453333 45.7536z m221.6096 0a44.2368 44.2368 0 0 1-44.11626667-45.02506667v-159.95733333a44.90453333 44.90453333 0 0 1 89.08053333 0v159.95733333a44.90453333 44.90453333 0 0 1-44.90453333 45.02506667z m221.60853333 0a44.2368 44.2368 0 0 1-44.176-45.02506667v-294.912a44.96533333 44.96533333 0 1 1 89.14133333 0v298.61333334a44.90453333 44.90453333 0 0 1-44.90453333 41.264zM169.23733334 501.44106667a44.176 44.176 0 0 1-36.0448-17.6576 45.02613333 45.02613333 0 0 1 11.0432-62.6848l320.21653333-246.9728a45.57226667 45.57226667 0 0 1 55.22026667 0l147.27466666 120.14933333 237.81013334-198.368a44.53973333 44.53973333 0 0 1 57.4048 67.84213333L697.8336 386.45013333a44.1152 44.1152 0 0 1-56.67733333 0l-147.2128-120.93866666-294.54826667 226.3424a45.57226667 45.57226667 0 0 1-30.15786666 9.5872z" p-id="9754"></path><path d="M933.4592 325.2224a44.90453333 44.90453333 0 0 1-44.90453333-44.2368v-123.85066667H763.37066667a44.96533333 44.96533333 0 0 1 0-89.20213333h170.09066667a44.90453333 44.90453333 0 0 1 44.90346666 44.176v168.8768a44.90453333 44.90453333 0 0 1-44.90453333 44.2976z" p-id="9755"></path></svg>