<?xml version="1.0" standalone="no"?><!DOCTYPE svg PUBLIC "-//W3C//DTD SVG 1.1//EN" "http://www.w3.org/Graphics/SVG/1.1/DTD/svg11.dtd"><svg t="1597223982189" class="icon" viewBox="0 0 1024 1024" version="1.1" xmlns="http://www.w3.org/2000/svg" p-id="3028" xmlns:xlink="http://www.w3.org/1999/xlink" width="200" height="200"><defs><style type="text/css"></style></defs><path d="M918.287059 875.52l-56.922353-56.621176a211.064471 211.064471 0 0 0 12.047059-234.315295V240.941176c0-33.129412-27.105882-60.235294-60.235294-60.235294h-90.352942V148.48C722.823529 116.555294 696.621176 90.352941 664.094118 90.352941H149.082353C116.856471 90.352941 90.352941 116.555294 90.352941 148.48v666.804706C90.352941 847.209412 116.856471 873.411765 149.082353 873.411765h434.296471c0.301176 0 0.602353-0.301176 0.903529-0.301177 33.129412 20.178824 70.776471 30.418824 108.423529 30.418824 44.574118 0 88.847059-14.155294 126.192942-42.164706l56.922352 56.621176c6.023529 6.023529 13.552941 8.734118 21.38353 8.734118s15.36-3.011765 21.383529-8.734118c11.444706-11.745882 11.444706-30.72-0.301176-42.465882zM813.176471 240.941176v278.889412a207.088941 207.088941 0 0 0-90.352942-35.538823V240.941176h90.352942zM149.082353 150.588235L662.588235 148.48v335.811765c-43.369412 6.324706-85.534118 25.901176-118.964706 59.331764a210.522353 210.522353 0 0 0-23.491764 269.854118L150.588235 815.284706 149.082353 150.588235z m437.007059 648.734118a150.678588 150.678588 0 0 1 0-212.931765c28.611765-28.611765 66.258824-44.272941 106.61647-44.272941s78.004706 15.661176 106.616471 43.971765a150.678588 150.678588 0 0 1 0 212.931764c-28.611765 28.611765-66.258824 44.272941-106.616471 44.272942-40.357647 0-78.004706-15.661176-106.61647-43.971765z"  p-id="3029"></path><path d="M301.176471 271.058824c16.564706 0 30.117647 13.552941 30.117647 30.117647s-13.552941 30.117647-30.117647 30.117647-30.117647-13.552941-30.117647-30.117647 13.552941-30.117647 30.117647-30.117647m0-60.235295c-49.995294 0-90.352941 40.357647-90.352942 90.352942s40.357647 90.352941 90.352942 90.352941 90.352941-40.357647 90.352941-90.352941-40.357647-90.352941-90.352941-90.352942zM572.235294 301.176471h-60.235294c-16.564706 0-30.117647-13.552941-30.117647-30.117647s13.552941-30.117647 30.117647-30.117648h60.235294c16.564706 0 30.117647 13.552941 30.117647 30.117648s-13.552941 30.117647-30.117647 30.117647zM451.764706 542.117647H240.941176c-16.564706 0-30.117647-13.552941-30.117647-30.117647s13.552941-30.117647 30.117647-30.117647h210.82353c16.564706 0 30.117647 13.552941 30.117647 30.117647s-13.552941 30.117647-30.117647 30.117647zM301.176471 632.470588H240.941176c-16.564706 0-30.117647-13.552941-30.117647-30.117647s13.552941-30.117647 30.117647-30.117647h60.235295c16.564706 0 30.117647 13.552941 30.117647 30.117647s-13.552941 30.117647-30.117647 30.117647zM602.352941 722.823529c-7.830588 0-15.661176-3.312941-21.383529-8.734117-5.421176-5.722353-8.734118-13.552941-8.734118-21.38353 0-8.131765 3.312941-15.661176 8.734118-21.383529 11.143529-11.143529 31.322353-11.143529 42.767059 0 5.421176 5.722353 8.734118 13.552941 8.734117 21.383529 0 7.830588-3.312941 15.661176-8.734117 21.38353-1.505882 1.204706-3.011765 2.710588-4.818824 3.614117-1.505882 1.204706-3.312941 2.108235-5.12 2.710589-1.807059 0.903529-3.614118 1.505882-5.722353 1.807058-1.807059 0.301176-3.915294 0.602353-5.722353 0.602353zM692.705882 722.823529c-7.830588 0-15.661176-3.312941-21.383529-8.734117-2.710588-3.011765-4.818824-6.324706-6.324706-9.938824S662.588235 696.621176 662.588235 692.705882s0.903529-7.830588 2.409412-11.444706c1.505882-3.915294 3.614118-6.927059 6.324706-9.938823 6.927059-6.927059 17.468235-10.24 27.105882-8.131765 2.108235 0.301176 3.915294 0.903529 5.722353 1.807059 1.807059 0.602353 3.614118 1.505882 5.12 2.710588 1.807059 1.204706 3.312941 2.409412 4.818824 3.614118 2.710588 3.011765 4.818824 6.324706 6.324706 9.938823 1.505882 3.614118 2.409412 7.529412 2.409411 11.444706s-0.903529 7.830588-2.409411 11.444706-3.614118 6.927059-6.324706 9.938824c-1.505882 1.204706-3.011765 2.409412-4.818824 3.614117-1.505882 1.204706-3.312941 2.108235-5.12 2.710589-1.807059 0.903529-3.614118 1.505882-5.722353 1.807058-1.807059 0.301176-3.915294 0.602353-5.722353 0.602353z"  p-id="3030"></path><path d="M783.058824 722.823529c-8.131765 0-15.661176-3.312941-21.38353-8.734117-1.204706-1.505882-2.710588-3.011765-3.614118-4.517647a22.799059 22.799059 0 0 1-2.710588-5.421177 19.154824 19.154824 0 0 1-1.807059-5.421176c-0.602353-2.108235-0.602353-3.915294-0.602353-6.02353 0-7.830588 3.312941-15.661176 8.734118-21.383529 11.143529-11.143529 31.322353-11.143529 42.767059 0 5.421176 5.722353 8.734118 13.552941 8.734118 21.383529 0 2.108235-0.301176 3.915294-0.602353 6.02353-0.301176 1.807059-0.903529 3.614118-1.807059 5.421176-0.602353 1.807059-1.505882 3.614118-2.710588 5.421177l-3.614118 4.517647c-5.722353 5.421176-13.552941 8.734118-21.383529 8.734117z"  p-id="3031"></path><path d="M391.529412 722.823529H240.941176c-16.564706 0-30.117647-13.552941-30.117647-30.117647s13.552941-30.117647 30.117647-30.117647h150.588236c16.564706 0 30.117647 13.552941 30.117647 30.117647s-13.552941 30.117647-30.117647 30.117647z"  p-id="3032"></path><path d="M572.235294 421.647059h-120.470588c-16.564706 0-30.117647-13.552941-30.117647-30.117647s13.552941-30.117647 30.117647-30.117647h120.470588c16.564706 0 30.117647 13.552941 30.117647 30.117647s-13.552941 30.117647-30.117647 30.117647z"  p-id="3033"></path></svg>