<?xml version="1.0" standalone="no"?><!DOCTYPE svg PUBLIC "-//W3C//DTD SVG 1.1//EN" "http://www.w3.org/Graphics/SVG/1.1/DTD/svg11.dtd"><svg t="1553239438911" class="icon" style="" viewBox="0 0 1024 1024" version="1.1" xmlns="http://www.w3.org/2000/svg" p-id="11828" xmlns:xlink="http://www.w3.org/1999/xlink" width="200" height="200"><defs><style type="text/css"></style></defs><path d="M812.8 992h-640c-89.6 0-160-70.4-160-160V192c0-89.6 70.4-160 160-160h492.8c19.2 0 38.4 12.8 38.4 32s-12.8 32-32 32H172.8c-51.2 0-89.6 44.8-89.6 96v640c0 51.2 44.8 96 96 96h640c51.2 0 96-44.8 96-96V396.8c0-19.2 12.8-32 32-32s32 12.8 32 32V832c-6.4 89.6-76.8 160-166.4 160z" p-id="11829" fill="#2D3B88"></path><path d="M275.2 768c-6.4 0-19.2-6.4-25.6-12.8-12.8-12.8-12.8-32 0-44.8l704-640c12.8-12.8 32-12.8 44.8 0 12.8 12.8 12.8 32 0 44.8l-704 640C288 768 281.6 768 275.2 768z" p-id="11830" fill="#2D3B88"></path></svg>