<?xml version="1.0" standalone="no"?><!DOCTYPE svg PUBLIC "-//W3C//DTD SVG 1.1//EN" "http://www.w3.org/Graphics/SVG/1.1/DTD/svg11.dtd"><svg t="1554789088244" class="icon" style="" viewBox="0 0 1024 1024" version="1.1" xmlns="http://www.w3.org/2000/svg" p-id="2179" xmlns:xlink="http://www.w3.org/1999/xlink" width="200" height="200"><defs><style type="text/css"></style></defs><path d="M892.8 128H131.2c-19.2 0-35.2 6.4-48 22.4-12.8 12.8-19.2 32-19.2 54.4V816c0 44.8 28.8 80 67.2 80h761.6c19.2 0 35.2-6.4 48-22.4s19.2-35.2 19.2-54.4V204.8c0-41.6-32-76.8-67.2-76.8zM224 832h-51.2c-25.6 0-44.8-22.4-44.8-51.2V640h96v192z m0-256h-96V448h96v128z m0-192h-96V243.2c0-28.8 19.2-51.2 44.8-51.2H224v192z m512 32v416H288V192h448v224z m160 364.8c0 28.8-19.2 51.2-44.8 51.2H800V640h96v140.8z m0-204.8h-96V448h96v128z m0-192h-96V192h54.4c22.4 0 41.6 22.4 41.6 51.2V384z" fill="#323F8C" p-id="2180"></path><path d="M444.8 627.2l144-73.6 25.6-12.8c32-16 32-41.6 0-57.6l-169.6-86.4c-16-6.4-28.8 0-28.8 16v192c0 22.4 12.8 28.8 28.8 22.4z" fill="#323F8C" p-id="2181"></path></svg>