<?xml version="1.0" standalone="no"?><!DOCTYPE svg PUBLIC "-//W3C//DTD SVG 1.1//EN" "http://www.w3.org/Graphics/SVG/1.1/DTD/svg11.dtd"><svg t="1537839230572" class="icon" style="" viewBox="0 0 1024 1024" version="1.1" xmlns="http://www.w3.org/2000/svg" p-id="4474" xmlns:xlink="http://www.w3.org/1999/xlink" width="200" height="200"><defs><style type="text/css"></style></defs><path d="M763.4 451.8c0-195.2-105-261.6-203.2-276.4 0-1 0.2-2 0.2-3.2 0-24.6-21.8-44.2-48.4-44.2-26.6 0-47.6 19.6-47.6 44.2 0 1.2 0 2.2 0.2 3.2-98.4 15-204 81.6-204 276.8 0 227.6-56.6 252-132.6 316h768c-75.6-64.2-132.6-88.8-132.6-316.4zM512.4 896c53.6 0 97.6-39.8 103.4-86H409c5.6 46.2 49.8 86 103.4 86z" p-id="4475"></path></svg>