<?xml version="1.0" standalone="no"?><!DOCTYPE svg PUBLIC "-//W3C//DTD SVG 1.1//EN" "http://www.w3.org/Graphics/SVG/1.1/DTD/svg11.dtd"><svg t="1546414320809" class="icon" style="" viewBox="0 0 1024 1024" version="1.1" xmlns="http://www.w3.org/2000/svg" p-id="6633" xmlns:xlink="http://www.w3.org/1999/xlink" width="200" height="200"><defs><style type="text/css"></style></defs><path d="M153.6 102.4a51.2 51.2 0 0 0-51.2 51.2v204.8a51.2 51.2 0 0 0 51.2 51.2h204.8a51.2 51.2 0 0 0 51.2-51.2V153.6a51.2 51.2 0 0 0-51.2-51.2H153.6z m0-51.2h204.8a102.4 102.4 0 0 1 102.4 102.4v204.8a102.4 102.4 0 0 1-102.4 102.4H153.6a102.4 102.4 0 0 1-102.4-102.4V153.6a102.4 102.4 0 0 1 102.4-102.4z m0 563.2a51.2 51.2 0 0 0-51.2 51.2v204.8a51.2 51.2 0 0 0 51.2 51.2h204.8a51.2 51.2 0 0 0 51.2-51.2v-204.8a51.2 51.2 0 0 0-51.2-51.2H153.6z m0-51.2h204.8a102.4 102.4 0 0 1 102.4 102.4v204.8a102.4 102.4 0 0 1-102.4 102.4H153.6a102.4 102.4 0 0 1-102.4-102.4v-204.8a102.4 102.4 0 0 1 102.4-102.4z m512-460.8a51.2 51.2 0 0 0-51.2 51.2v204.8a51.2 51.2 0 0 0 51.2 51.2h204.8a51.2 51.2 0 0 0 51.2-51.2V153.6a51.2 51.2 0 0 0-51.2-51.2h-204.8z m0-51.2h204.8a102.4 102.4 0 0 1 102.4 102.4v204.8a102.4 102.4 0 0 1-102.4 102.4h-204.8a102.4 102.4 0 0 1-102.4-102.4V153.6a102.4 102.4 0 0 1 102.4-102.4z m0 563.2a51.2 51.2 0 0 0-51.2 51.2v204.8a51.2 51.2 0 0 0 51.2 51.2h204.8a51.2 51.2 0 0 0 51.2-51.2v-204.8a51.2 51.2 0 0 0-51.2-51.2h-204.8z m0-51.2h204.8a102.4 102.4 0 0 1 102.4 102.4v204.8a102.4 102.4 0 0 1-102.4 102.4h-204.8a102.4 102.4 0 0 1-102.4-102.4v-204.8a102.4 102.4 0 0 1 102.4-102.4z" p-id="6634" fill="#BFCBD9"></path></svg>