<?xml version="1.0" standalone="no"?><!DOCTYPE svg PUBLIC "-//W3C//DTD SVG 1.1//EN" "http://www.w3.org/Graphics/SVG/1.1/DTD/svg11.dtd"><svg t="1539049322444" class="icon" style="" viewBox="0 0 1024 1024" version="1.1" xmlns="http://www.w3.org/2000/svg" p-id="28971" xmlns:xlink="http://www.w3.org/1999/xlink" width="200" height="200"><defs><style type="text/css"></style></defs><path d="M519.68 0C415.232 0 330.24 82.944 326.656 186.88H82.944c-27.136 0-49.152 22.016-49.152 49.152s22.016 49.152 49.152 49.152h54.272v550.912C137.216 939.52 207.36 1024 293.888 1024h441.344c86.528 0 156.672-83.968 156.672-187.904v-550.4h49.152c27.136 0 49.152-22.016 49.152-49.152s-22.016-49.152-49.152-49.152H712.192C709.12 82.944 624.128 0 519.68 0zM418.816 186.88c3.584-53.248 47.104-94.72 100.864-94.72s97.28 41.472 100.352 94.72H418.816zM293.888 931.84c-30.72 0-64.512-39.424-64.512-95.744v-550.4h570.368v550.912c0 56.32-33.792 95.744-64.512 95.744H293.888v-0.512z" p-id="28972"></path><path d="M359.936 813.568c22.528 0 40.96-22.528 40.96-50.688V473.6c0-28.16-18.432-50.688-40.96-50.688s-40.96 22.528-40.96 50.688v289.28c0 28.16 17.92 50.688 40.96 50.688z m148.48 0c22.528 0 40.96-22.528 40.96-50.688V473.6c0-28.16-18.432-50.688-40.96-50.688s-40.96 22.528-40.96 50.688v289.28c0 28.16 18.432 50.688 40.96 50.688z m156.16 0c22.528 0 40.96-22.528 40.96-50.688V473.6c0-28.16-18.432-50.688-40.96-50.688s-40.96 22.528-40.96 50.688v289.28c0 28.16 17.92 50.688 40.96 50.688z" p-id="28973"></path></svg>