<?xml version="1.0" standalone="no"?><!DOCTYPE svg PUBLIC "-//W3C//DTD SVG 1.1//EN" "http://www.w3.org/Graphics/SVG/1.1/DTD/svg11.dtd"><svg t="1553240085955" class="icon" style="" viewBox="0 0 1024 1024" version="1.1" xmlns="http://www.w3.org/2000/svg" p-id="8551" xmlns:xlink="http://www.w3.org/1999/xlink" width="200" height="200"><defs><style type="text/css"></style></defs><path d="M511.504 958.878c-243.067 0-440.095-197.028-440.095-440.096s197.031-440.095 440.095-440.095c243.042 0 440.095 197.028 440.095 440.095 0.001 243.069-197.052 440.096-440.095 440.096v0zM153.926 518.782c0 197.486 160.095 357.579 357.578 357.579 83.863 0 160.82-29.092 221.796-77.415l-501.957-501.984c-48.32 61.003-77.417 137.959-77.417 221.819v0zM511.504 161.207c-83.863 0-160.818 29.092-221.819 77.415l501.958 501.957c48.349-60.974 77.439-137.932 77.439-221.796-0.001-197.485-160.093-357.578-357.579-357.578v0z" p-id="8552" fill="#8F8F8F"></path></svg>