<?xml version="1.0" standalone="no"?><!DOCTYPE svg PUBLIC "-//W3C//DTD SVG 1.1//EN" "http://www.w3.org/Graphics/SVG/1.1/DTD/svg11.dtd"><svg t="1529913069988" class="icon" style="" viewBox="0 0 1024 1024" version="1.1" xmlns="http://www.w3.org/2000/svg" p-id="9164" xmlns:xlink="http://www.w3.org/1999/xlink" width="200" height="200"><defs><style type="text/css"></style></defs><path d="M512 42.666667C251.733333 42.666667 42.666667 251.733333 42.666667 512s209.066667 469.333333 469.333333 469.333333c260.266667 0 469.333333-209.066667 469.333333-469.333333S772.266667 42.666667 512 42.666667zM746.666667 155.733333c0 4.266667 0 10.666667 0 14.933333 0 44.8-4.266667 87.466667-12.8 130.133333C704 307.2 682.666667 332.8 682.666667 362.666667c0 17.066667 6.4 34.133333 19.2 44.8-14.933333 34.133333-29.866667 68.266667-51.2 100.266667-78.933333-89.6-134.4-202.666667-153.6-328.533333 49.066667-29.866667 102.4-53.333333 157.866667-68.266667C686.933333 121.6 718.933333 136.533333 746.666667 155.733333zM657.066667 576c38.4 36.266667 78.933333 68.266667 123.733333 93.866667C736 678.4 689.066667 682.666667 640 682.666667c-21.333333 0-42.666667-2.133333-64-2.133333 0-4.266667 0-8.533333-2.133333-12.8C603.733333 640 631.466667 608 657.066667 576zM512 85.333333c23.466667 0 46.933333 2.133333 70.4 6.4-29.866667 12.8-59.733333 25.6-89.6 40.533333C490.666667 117.333333 490.666667 102.4 490.666667 87.466667 497.066667 85.333333 505.6 85.333333 512 85.333333zM627.2 544c-23.466667 32-49.066667 59.733333-76.8 87.466667C539.733333 622.933333 526.933333 618.666667 512 618.666667c-27.733333 0-51.2 17.066667-59.733333 42.666667-85.333333-21.333333-166.4-53.333333-238.933333-98.133333 19.2-72.533333 51.2-140.8 91.733333-200.533333 4.266667 0 8.533333 2.133333 14.933333 2.133333 36.266667 0 64-27.733333 64-64 0-8.533333-2.133333-17.066667-4.266667-25.6 25.6-25.6 51.2-46.933333 78.933333-68.266667C482.133333 334.933333 541.866667 450.133333 627.2 544zM149.333333 736c-38.4-64-61.866667-136.533333-64-215.466667 25.6 21.333333 51.2 42.666667 78.933333 59.733333C155.733333 627.2 149.333333 676.266667 149.333333 725.333333 149.333333 729.6 149.333333 733.866667 149.333333 736zM177.066667 537.6c-32-21.333333-59.733333-44.8-87.466667-70.4 21.333333-192 170.666667-345.6 360.533333-375.466667 0 23.466667 2.133333 44.8 4.266667 68.266667-36.266667 25.6-70.4 53.333333-102.4 83.2C341.333333 236.8 330.666667 234.666667 320 234.666667c-36.266667 0-64 27.733333-64 64 0 14.933333 6.4 27.733333 14.933333 40.533333C228.266667 398.933333 196.266667 465.066667 177.066667 537.6zM196.266667 797.866667C194.133333 774.4 192 750.933333 192 725.333333c0-40.533333 4.266667-81.066667 12.8-119.466667 76.8 44.8 160 78.933333 247.466667 98.133333 0 2.133333 0 2.133333 2.133333 4.266667-74.666667 49.066667-160 81.066667-251.733333 96C198.4 802.133333 198.4 800 196.266667 797.866667zM512 938.666667c-104.533333 0-198.4-38.4-273.066667-100.266667 89.6-17.066667 170.666667-51.2 243.2-100.266667C490.666667 744.533333 501.333333 746.666667 512 746.666667c21.333333 0 38.4-10.666667 51.2-25.6 25.6 2.133333 51.2 4.266667 76.8 4.266667 68.266667 0 134.4-8.533333 198.4-23.466667 14.933333 6.4 29.866667 14.933333 44.8 19.2C810.666667 851.2 672 938.666667 512 938.666667zM842.666667 657.066667c-59.733333-29.866667-115.2-70.4-162.133333-117.333333 23.466667-36.266667 42.666667-74.666667 59.733333-113.066667 2.133333 0 4.266667 0 6.4 0 36.266667 0 64-27.733333 64-64 0-25.6-14.933333-46.933333-36.266667-57.6 8.533333-38.4 12.8-76.8 12.8-117.333333 91.733333 78.933333 149.333333 194.133333 149.333333 324.266667 0 42.666667-6.4 81.066667-17.066667 119.466667C896 642.133333 870.4 650.666667 842.666667 657.066667z" p-id="9165"></path></svg>