<?xml version="1.0" standalone="no"?><!DOCTYPE svg PUBLIC "-//W3C//DTD SVG 1.1//EN" "http://www.w3.org/Graphics/SVG/1.1/DTD/svg11.dtd"><svg t="1537839329255" class="icon" style="" viewBox="0 0 1025 1024" version="1.1" xmlns="http://www.w3.org/2000/svg" p-id="6479" xmlns:xlink="http://www.w3.org/1999/xlink" width="200.1953125" height="200"><defs><style type="text/css"></style></defs><path d="M582.352706 568.885667c-3.173009-1.033003-23.208068-10.067029-10.688031-48.126141l-0.173001 0c32.628096-33.602098 57.568169-87.703257 57.568169-140.945413 0-81.88124-54.45416-124.788366-117.727345-124.788366-63.311185 0-117.455344 42.908126-117.455344 124.788366 0 53.458157 24.803073 107.775316 57.627169 141.295414 12.792037 33.563098-10.08603 46.021135-14.873044 47.77614-66.271194 23.96307-144.009422 67.648198-144.009422 110.771325l0 16.157047c0 58.755172 113.910334 72.111211 219.332643 72.111211 105.578309 0 218.047639-13.356039 218.047639-72.111211l0-16.157047C730.001139 635.229861 651.87491 591.897734 582.352706 568.885667L582.352706 568.885667zM582.352706 568.885667" p-id="6480"></path><path d="M511.308498 958.895809c-246.714723 0-447.417311-200.702588-447.417311-447.423311 0-246.714723 200.702588-447.417311 447.417311-447.417311 246.721723 0 447.423311 200.702588 447.423311 447.417311C958.731809 758.194221 758.029221 958.895809 511.308498 958.895809L511.308498 958.895809zM511.308498 128.259376c-211.307619 0-383.213123 171.905504-383.213123 383.213123 0 211.279619 171.905504 383.219123 383.213123 383.219123 211.279619 0 383.219123-171.939504 383.219123-383.219123C894.527621 300.165879 722.588117 128.259376 511.308498 128.259376L511.308498 128.259376zM511.308498 128.259376" p-id="6481"></path></svg>