<?xml version="1.0" standalone="no"?><!DOCTYPE svg PUBLIC "-//W3C//DTD SVG 1.1//EN" "http://www.w3.org/Graphics/SVG/1.1/DTD/svg11.dtd"><svg t="1553563233249" class="icon" style="" viewBox="0 0 1024 1024" version="1.1" xmlns="http://www.w3.org/2000/svg" p-id="1168" xmlns:xlink="http://www.w3.org/1999/xlink" width="200" height="200"><defs><style type="text/css"></style></defs><path d="M512 288a160 160 0 1 0 160 160 160 160 0 0 0-160-160z m0 256a96 96 0 1 1 96-96 96 96 0 0 1-96 96z" p-id="1169"></path><path d="M511.26 64c-212.51 0.4-385 174.69-383.25 387.2a382.91 382.91 0 0 0 120.68 276.3h-0.19l241.08 227.33a32 32 0 0 0 43.87 0L773.39 729.3A383 383 0 0 0 896 448c0-212.32-172.32-384.4-384.74-384zM748 664.08a321.82 321.82 0 0 1-33.72 31.86L511.5 887.53 299.33 687.08q-7.3-6.5-14.2-13.42A319 319 0 0 1 192 448c0-176.73 143.27-320 320-320s320 143.27 320 320a318.83 318.83 0 0 1-84 216.08z" p-id="1170"></path></svg>