<?xml version="1.0" standalone="no"?><!DOCTYPE svg PUBLIC "-//W3C//DTD SVG 1.1//EN" "http://www.w3.org/Graphics/SVG/1.1/DTD/svg11.dtd"><svg t="1539048874639" class="icon" style="" viewBox="0 0 1024 1024" version="1.1" xmlns="http://www.w3.org/2000/svg" p-id="26980" xmlns:xlink="http://www.w3.org/1999/xlink" width="200" height="200"><defs><style type="text/css"></style></defs><path d="M643.670825 516.734611a9599.750039 9599.750039 0 0 0-59.738076-45.848705 6870.05738 6870.05738 0 0 1-32.582084-24.910007 15698.398615 15698.398615 0 0 1-40.637001-31.408047c-4.083608-3.159691-8.167215-6.329592-12.255928-9.484179a15909.715103 15909.715103 0 0 0-62.315853-48.064063l-4.48176-3.440439-8.958414-6.875774c-13.532055-10.392782-27.059005-20.790668-40.580851-31.193659a71917.384708 71917.384708 0 0 1-53.898517-41.581335l-13.460592-10.392781-145.396851-112.140972-10.31111-7.942617a46374.571806 46374.571806 0 0 1-61.866656-47.72206 27218.296716 27218.296716 0 0 1-24.864066-19.249106l2.174521 585.048264c0.081672 30.004307 0.091881 61.335787 0.061254 95.331821l4.936061-4.747194c16.610074-15.905652 32.878146-30.126816 57.686063-50.963424a728.939284 728.939284 0 0 1 68.844521-51.091036 909.286713 909.286713 0 0 1 21.296014-13.429965l1.66407-1.026007c5.257645-3.251573 8.284619-5.140241 11.515773-7.197358a51.361576 51.361576 0 0 1 8.728712-4.548118 47.038056 47.038056 0 0 1 17.784111-3.532321c6.71243 0 13.807698 1.439472 20.836608 5.053465 9.453552 4.869702 17.105212 12.996081 21.923869 23.94015a12098.412592 12098.412592 0 0 0 37.165935 83.152461c3.159691 7.049328 5.992694 13.292143 11.332011 25.042724l4.068294 8.95331c4.119339 9.040087 8.223365 18.095487 12.301868 27.155991 4.32352 9.627105 8.621517 19.259315 12.893991 28.911942 6.76858 15.231857 9.264685 20.846817 12.827633 28.769017 4.16528 9.239162 7.906885 17.437005 11.551505 25.257113a980.780475 980.780475 0 0 1 10.31111 23.210205c9.126863 21.056102 13.338084 30.096189 19.192956 40.34094 8.63683 15.129766 18.738655 24.874275 32.270709 30.17786 9.739404 3.818173 31.025209 4.634895 44.934998 2.148999 23.245937-4.149966 40.504284-26.967124 43.342391-56.164919 1.883564-19.381823-0.6789-33.266089-8.932891-46.675636-10.433618-16.957181-19.111284-31.27533-36.864769-60.748769l-5.558811-9.218744c-4.624686-7.672078-9.25958-15.339051-13.904684-23.00092-5.053465-8.340769-9.67815-15.956697-17.860679-29.417289l-2.235775-3.680352c-3.80286-6.24792-7.600615-12.48563-11.388161-18.73355l-4.675731-7.692496a18179.343416 18179.343416 0 0 1-21.816674-35.940852c-5.375049-8.881847-10.377468-17.207302-18.73355-31.142613l-3.379185-5.635379-7.677183-12.797005-7.641451-12.730647c-8.539845-14.129283-9.193222-28.962987-3.920263-41.821247 5.267854-12.791901 16.104728-22.893726 32.041007-26.921184 33.669345-8.463277 64.985512-14.915377 95.663614-19.703407 3.48638-0.546183 7.07485-1.077052 10.806247-1.60792 9.126863-1.306754 16.227236-2.210253 32.449367-4.22143 9.933376-1.225082 15.650426-1.939714 21.81157-2.76154 6.906401-0.913707 12.118106-1.368009 23.669611-2.194939a331.41539 331.41539 0 0 0 17.268556-1.500726 462.979021 462.979021 0 0 1 12.59793-1.383322h-0.015314z m-388.320463 161.542416c-11.260548 6.957447-16.308908 10.122243-21.842197 13.746444a677.189766 677.189766 0 0 0-64.092222 47.56382c-24.006509 20.157708-39.595681 33.796958-55.256317 48.783799a1119.995765 1119.995765 0 0 0-39.314933 39.478277c-1.842728 1.949923-3.705874 4.047876-6.421473 7.222881-15.170603 17.707544-44.184635 6.947238-44.128485-16.375267 0.127613-59.181684 0.15824-109.777583 0.035731-157.014715L21.967078 25.226486C21.885406 4.32352 45.912333-7.498525 62.425421 5.30869l32.68928 25.364308c12.092583 9.382089 21.949391 17.01333 31.413152 24.328093 21.035684 16.252759 42.081577 32.485099 63.142784 48.707231l10.311109 7.942616 145.412165 112.156285L358.864712 234.210214c24.195376 18.677401 38.518629 29.723559 53.86789 41.550708 12.322286 9.484179 25.200964 19.381823 40.524702 31.152822l8.953309 6.875775 4.48176 3.440439a16009.41128 16009.41128 0 0 1 62.468988 48.181466c4.093817 3.164796 8.182529 6.329592 12.266137 9.499493 13.491219 10.45914 26.997751 20.897862 40.519597 31.316166 9.080923 6.988074 17.151152 13.154321 32.388113 24.756872 15.875025 12.102792 22.929457 17.48805 31.75005 24.277047 27.048796 20.826399 54.066966 41.683425 81.064717 62.576183 18.544683 14.343672 9.024773 44.021291-14.399821 44.904371-7.559779 0.280748-14.98684 0.653377-24.797708 1.204665-25.854341 1.464994-37.298652 2.307238-50.876647 3.976413a389.984533 389.984533 0 0 1-19.815707 1.745742c-10.45914 0.745258-14.971527 1.138306-20.525233 1.873355-6.365323 0.847349-12.204882 1.582398-22.260766 2.817689-15.905652 1.965236-22.806949 2.853421-31.525451 4.098921-3.379185 0.474719-6.753266 0.980066-10.127347 1.510935-27.538829 4.292893-55.679991 10.020152-85.87827 17.472737l8.841011 14.72651 3.843696 6.406159 3.384289 5.650692c6.176457 10.331527 12.38354 20.647741 18.616147 30.948642 6.156039 10.163079 11.781208 19.437973 21.770733 35.85918l4.675731 7.692496 4.670626 7.692496 6.712431 11.041054 2.240879 3.680352c8.192738 13.48101 12.842946 21.127565 17.901515 29.478543a8157.720972 8157.720972 0 0 1 13.960834 23.097906l5.563916 9.228953c17.687126 29.35093 26.298433 43.577198 36.619751 60.350617 14.455971 23.480744 19.024507 48.217198 16.14046 77.833562-4.849284 49.871059-36.84435 92.192548-84.454111 100.691557-22.27608 3.976413-52.561135 2.817689-72.065467-4.833971-25.216277-9.882331-43.607826-27.615397-57.527823-52.009848-7.059537-12.363122-11.806731-22.521096-21.699271-45.368882a915.728604 915.728604 0 0 0-9.754717-21.974913 2054.156753 2054.156753 0 0 1-11.776104-25.752251 6478.388359 6478.388359 0 0 1-12.934827-29.003824 5984.629145 5984.629145 0 0 0-12.791901-28.682239 7514.246492 7514.246492 0 0 0-12.215092-26.96202l-1.541562-3.394499-2.542046-5.579229a5860.691652 5860.691652 0 0 1-11.403474-25.200964 11780.973349 11780.973349 0 0 1-36.129719-80.835014c-3.215841 2.046908-6.4521 4.06319-9.698568 6.053949z m0 0" fill="#666666" p-id="26981"></path></svg>