<?xml version="1.0" standalone="no"?><!DOCTYPE svg PUBLIC "-//W3C//DTD SVG 1.1//EN" "http://www.w3.org/Graphics/SVG/1.1/DTD/svg11.dtd"><svg t="1588039233939" class="icon" viewBox="0 0 1230 1024" version="1.1" xmlns="http://www.w3.org/2000/svg" p-id="2043" xmlns:xlink="http://www.w3.org/1999/xlink" width="240.234375" height="200"><defs><style type="text/css"></style></defs><path d="M905.195564 860.568374a163.58773 163.58773 0 0 1 87.774294-145.493099V190.883021a77.316211 77.316211 0 0 1 154.632421 0v528.88459a162.544989 162.544989 0 1 1-242.284039 140.708757z m-376.306983 19.965432V308.80481a160.919539 160.919539 0 1 1 154.724428-4.661668v576.390664a77.34688 77.34688 0 0 1-154.724428 0z m-444.698554 0v-202.966554a164.599803 164.599803 0 0 1 0-287.244597v-199.347628a77.34688 77.34688 0 0 1 154.724428 0v200.11435a164.599803 164.599803 0 0 1 0 285.680485v203.763944a77.34688 77.34688 0 0 1-154.724428 0z" p-id="2044"></path></svg>