<?xml version="1.0" standalone="no"?><!DOCTYPE svg PUBLIC "-//W3C//DTD SVG 1.1//EN" "http://www.w3.org/Graphics/SVG/1.1/DTD/svg11.dtd"><svg t="1537839263134" class="icon" style="" viewBox="0 0 1024 1024" version="1.1" xmlns="http://www.w3.org/2000/svg" p-id="5159" xmlns:xlink="http://www.w3.org/1999/xlink" width="200" height="200"><defs><style type="text/css"></style></defs><path d="M463.121779 125.44199c0-33.995255 29.188786-61.538565 65.182558-61.538565 35.999912 0 65.172325 27.54331 65.172325 61.538565l0 342.323553c0 33.985022-29.172413 61.533448-65.172325 61.533448-35.994796 0-65.182558-27.548426-65.182558-61.533448L463.121779 125.44199 463.121779 125.44199zM512.005117 960.095551c-224.976938 0-407.359778-172.21527-407.359778-384.640334 0-163.541727 108.297518-302.880215 260.71079-358.520443L365.356129 353.862353c-78.180594 46.232974-130.354883 128.068817-130.354883 221.592864 0 144.455019 124.027781 261.551948 277.004895 261.551948 152.98837 0 276.999778-117.096928 276.999778-261.551948 0-79.858816-38.009685-151.2334-97.760534-199.215204L691.245384 230.454696c134.977157 62.657039 228.110301 193.397708 228.110301 345.011778C919.364895 787.880281 736.982054 960.095551 512.005117 960.095551L512.005117 960.095551zM512.005117 960.095551" p-id="5160"></path></svg>