<?xml version="1.0" standalone="no"?><!DOCTYPE svg PUBLIC "-//W3C//DTD SVG 1.1//EN" "http://www.w3.org/Graphics/SVG/1.1/DTD/svg11.dtd"><svg t="1539048500265" class="icon" style="" viewBox="0 0 1024 1024" version="1.1" xmlns="http://www.w3.org/2000/svg" p-id="25650" xmlns:xlink="http://www.w3.org/1999/xlink" width="200" height="200"><defs><style type="text/css"></style></defs><path d="M955.733333 635.733333l-49.493333-297.813333-243.626667 175.36 122.026667 1.706667c-4.693333 17.066667-18.346667 54.186667-40.106667 90.453333-25.173333 42.24-52.48 66.133333-74.24 66.133333-3.413333 0-23.04-8.96-50.773333-53.333333-22.613333-35.84-45.226667-86.186667-62.72-137.813333-25.173333-75.946667-58.026667-122.88-81.066667-149.333334-43.52-49.493333-96.853333-75.52-154.026666-75.52-26.026667 0-51.2 5.546667-74.666667 17.066667-20.906667 9.813333-40.533333 24.32-58.453333 43.093333-28.586667 29.866667-53.333333 70.4-73.386667 120.746667-34.133333 85.76-46.933333 180.053333-46.933333 219.306667h95.146666c0-26.026667 10.24-107.946667 40.106667-183.466667 15.36-38.826667 33.28-68.693333 53.333333-89.6 20.053333-20.906667 41.386667-31.146667 64.853334-31.146667 30.293333 0 57.173333 14.08 83.2 43.52 24.746667 27.733333 46.08 67.84 61.866666 116.053334 11.52 34.56 36.266667 101.546667 72.533334 159.146666 17.066667 27.306667 34.986667 49.066667 52.906666 64.853334 25.173333 21.76 51.2 32.853333 78.08 32.853333 33.706667 0 65.706667-12.8 95.573334-38.4 21.333333-18.346667 41.386667-43.093333 60.16-73.813333 21.333333-35.413333 37.12-73.386667 46.08-101.546667l83.626666 81.493333z" fill="" p-id="25651"></path></svg>