<?xml version="1.0" standalone="no"?><!DOCTYPE svg PUBLIC "-//W3C//DTD SVG 1.1//EN" "http://www.w3.org/Graphics/SVG/1.1/DTD/svg11.dtd"><svg t="1546414135723" class="icon" style="" viewBox="0 0 1024 1024" version="1.1" xmlns="http://www.w3.org/2000/svg" p-id="5790" xmlns:xlink="http://www.w3.org/1999/xlink" width="200" height="200"><defs><style type="text/css"></style></defs><path d="M887.003348 322.405921 887.003348 322.405921 643.188366 74.010621c-6.235005-6.346545-15.108093-10.251481-23.982204-10.251481L218.837612 63.759139c-24.452925 0-47.467081 10.251481-63.773466 27.079752-16.543791 16.598027-26.592658 39.783075-26.592658 65.159022l0 709.575868c0 25.37697 10.048867 48.313356 26.592658 64.910359l0 0 0 0c16.778128 16.584724 39.321564 27.079752 63.773466 27.079752l587.629491 0c24.689309 0 46.738487-10.000771 63.051011-26.110681l0.940418-0.969071c16.331967-16.597003 26.617218-39.533388 26.617218-64.910359L897.075751 346.811774C897.076774 338.021573 893.731586 329.243653 887.003348 322.405921L887.003348 322.405921zM639.097188 167.460989 639.097188 167.460989l156.099221 158.849868L675.786809 326.310857c-10.073426 0-19.419282-4.38589-26.126031-10.731412l-0.706081-1.461281c-5.76633-6.347568-9.857509-15.136745-9.857509-24.898063L639.097188 167.460989 639.097188 167.460989zM829.485353 865.574804 829.485353 865.574804c0 6.347568-2.164293 12.20395-6.729262 16.349363l0 0.249687c-4.308119 3.90289-10.072403 6.335289-16.287965 6.335289L218.837612 888.509143c-5.981225 0-11.979846-2.432399-16.052604-6.588045l0 0c-4.093225-4.143367-6.727215-9.998725-6.727215-16.347317L196.057793 155.998937c0-6.598278 2.636037-12.202926 6.727215-16.598027 4.072759-3.903913 10.070356-6.825452 16.052604-6.825452l379.75507 0L598.592682 289.220101c0 20.993127 8.142447 40.024575 21.579481 53.928237l0.966001 1.221828c14.379499 14.393825 33.558303 22.934339 54.647621 22.934339L829.485353 367.304504 829.485353 865.574804 829.485353 865.574804z" p-id="5791" fill="#BFCBD9"></path><path d="M763.050268 608.019891c0 19.780509-16.035208 35.815717-35.815717 35.815717L292.263925 643.835607c-19.780509 0-35.815717-16.035208-35.815717-35.815717l0 0c0-19.780509 16.035208-35.815717 35.815717-35.815717l434.969603 0C747.01506 572.204174 763.050268 588.239382 763.050268 608.019891L763.050268 608.019891z" p-id="5792" fill="#BFCBD9"></path><path d="M763.050268 737.979778c0 19.780509-16.035208 35.815717-35.815717 35.815717L292.263925 773.795495c-19.780509 0-35.815717-16.035208-35.815717-35.815717l0 0c0-19.780509 16.035208-35.815717 35.815717-35.815717l434.969603 0C747.01506 702.164061 763.050268 718.199269 763.050268 737.979778L763.050268 737.979778z" p-id="5793" fill="#BFCBD9"></path><path d="M524.622994 270.222421 363.21793 270.222421l18.992563-32.896224c5.516644-9.552563 2.241041-21.7647-7.310499-27.279297l-27.219945-15.714913c-9.55154-5.514597-21.765723-2.242064-27.28032 7.310499l-61.248969 106.087177c-1.917676 3.320629-2.77009 6.964622-2.667759 10.535961-0.220011 3.761674 0.615007 7.626701 2.64013 11.134595l61.249993 106.087177c5.514597 9.550517 17.726733 12.82305 27.28032 7.308453l27.217898-15.71389c9.55154-5.514597 12.825097-17.72878 7.310499-27.28032l-19.639293-34.016745 162.081469 0c11.027148 0 19.96982-8.94165 19.96982-19.96982L544.593837 290.192242C544.591791 279.162024 535.650141 270.222421 524.622994 270.222421z" p-id="5794" fill="#BFCBD9"></path></svg>