<?xml version="1.0" standalone="no"?><!DOCTYPE svg PUBLIC "-//W3C//DTD SVG 1.1//EN" "http://www.w3.org/Graphics/SVG/1.1/DTD/svg11.dtd"><svg t="1539048919344" class="icon" style="" viewBox="0 0 1024 1024" version="1.1" xmlns="http://www.w3.org/2000/svg" p-id="28317" xmlns:xlink="http://www.w3.org/1999/xlink" width="200" height="200"><defs><style type="text/css"></style></defs><path d="M176.64 1024c-97.28 0-176.64-80.384-176.64-178.688V178.688c0-98.816 79.36-178.688 176.64-178.688h670.72c97.28 0 176.64 80.384 176.64 178.688V845.312c0 98.816-79.36 178.688-176.64 178.688h-670.72z m0-936.96c-50.688 0-91.648 41.472-91.648 92.16V845.312c0 50.688 40.96 92.16 91.648 92.16h670.72c50.688 0 91.648-41.472 91.648-92.16V178.688c0-50.688-40.96-92.16-91.648-92.16h-3.584v437.248h-663.04v-437.248h-4.096z m581.632 350.208v-350.208h-492.544v350.208h492.544z m-160.768-35.328v-240.128h84.992v240.128h-84.992z" p-id="28318"></path></svg>