<?xml version="1.0" standalone="no"?><!DOCTYPE svg PUBLIC "-//W3C//DTD SVG 1.1//EN" "http://www.w3.org/Graphics/SVG/1.1/DTD/svg11.dtd"><svg t="1587627465638" class="icon" viewBox="0 0 1024 1024" version="1.1" xmlns="http://www.w3.org/2000/svg" p-id="2533" xmlns:xlink="http://www.w3.org/1999/xlink" width="200" height="200"><defs><style type="text/css"></style></defs><path d="M95.65 567.38a35 35 0 0 0 35-35V165.43h527.29a35 35 0 0 0 0-70H95.65a35 35 0 0 0-35 35v402a35 35 0 0 0 35 34.95zM930.27 375.16a35 35 0 0 0-35 35v453.06H199a35 35 0 0 0-69.37 6.62v28.38a35 35 0 0 0 35 35h765.64a35 35 0 0 0 35-35V410.16a35 35 0 0 0-35-35z"  p-id="2534"></path><path d="M249.58 720.71A93.36 93.36 0 0 0 232 666.07l139.75-184.32a93.88 93.88 0 0 0 70.36-9.93l123.56 80.94a93.94 93.94 0 1 0 158.81-48.65l135.22-225c2.74 0.24 5.51 0.37 8.31 0.37a94.05 94.05 0 1 0-70.8-32.28L659.45 476.43h-1.51a93.37 93.37 0 0 0-54.45 17.44l-118.3-77.5a93.94 93.94 0 1 0-170 24.11L172.76 628.35a93.93 93.93 0 1 0 76.82 92.36z m408.36-126.45a23.93 23.93 0 1 1 23.93-23.92 24 24 0 0 1-23.93 23.92zM868 161.65a23.93 23.93 0 1 1-23.93 23.92A24 24 0 0 1 868 161.65zM394.83 366.76a23.93 23.93 0 1 1-23.93 23.93 24 24 0 0 1 23.93-23.93z m-263.11 354a23.93 23.93 0 1 1 23.93 23.92 24 24 0 0 1-23.93-23.97z"  p-id="2535"></path></svg>