<?xml version="1.0" standalone="no"?><!DOCTYPE svg PUBLIC "-//W3C//DTD SVG 1.1//EN" "http://www.w3.org/Graphics/SVG/1.1/DTD/svg11.dtd"><svg t="1529913840038" class="icon" style="" viewBox="0 0 1024 1024" version="1.1" xmlns="http://www.w3.org/2000/svg" p-id="10499" xmlns:xlink="http://www.w3.org/1999/xlink" width="200" height="200"><defs><style type="text/css"></style></defs><path d="M938.666667 138.666667 938.666667 896 853.333333 896 853.333333 712.362667C775.637333 746.133333 651.776 768 512 768 372.224 768 248.362667 746.133333 170.666667 712.362667L170.666667 896 85.333333 896 85.333333 128 86.997333 128C103.808 56.426667 287.445333 0 512 0 736.554667 0 920.192 56.426667 937.002667 128L938.666667 128 938.666667 138.666667C938.666667 138.666667 938.666667 138.666667 938.666667 138.666667 938.666667 138.666667 938.666667 138.666667 938.666667 138.666667ZM853.333333 138.666667C853.312 109.205333 705.28 85.333333 522.666667 85.333333 340.053333 85.333333 192 109.205333 192 138.666667 192 168.128 340.053333 192 522.666667 192 705.28 192 853.312 168.128 853.333333 138.666667L853.333333 138.666667ZM853.333333 221.610667C775.509333 255.381333 651.797333 277.333333 512 277.333333 372.202667 277.333333 248.490667 255.381333 170.666667 221.610667L170.666667 405.333333 198.634667 405.333333C229.290667 429.674667 362.688 448 522.666667 448 682.645333 448 816.042667 429.674667 846.698667 405.333333L853.333333 405.333333 853.333333 221.610667ZM853.333333 477.696C775.637333 511.466667 651.776 533.333333 512 533.333333 372.224 533.333333 248.362667 511.466667 170.666667 477.696L170.666667 640 198.634667 640C229.290667 664.341333 362.688 682.666667 522.666667 682.666667 682.645333 682.666667 816.042667 664.341333 846.698667 640L853.333333 640 853.333333 477.696ZM522.666667 938.666667C682.645333 938.666667 816.042667 920.341333 846.698667 896L937.002667 896C920.192 967.573333 736.554667 1024 512 1024 287.445333 1024 103.808 967.573333 86.997333 896L198.634667 896C229.290667 920.341333 362.688 938.666667 522.666667 938.666667Z" p-id="10500"></path></svg>