<?xml version="1.0" standalone="no"?><!DOCTYPE svg PUBLIC "-//W3C//DTD SVG 1.1//EN" "http://www.w3.org/Graphics/SVG/1.1/DTD/svg11.dtd"><svg t="1607929262891" class="icon" viewBox="0 0 1024 1024" version="1.1" xmlns="http://www.w3.org/2000/svg" p-id="3796" xmlns:xlink="http://www.w3.org/1999/xlink" width="16" height="16"><defs><style type="text/css"></style></defs><path d="M500.9408 676.984832c-12.944384 0-23.760896 4.353024-32.457728 13.046784-8.69888 8.706048-13.049856 19.521536-13.049856 32.462848 0 12.940288 4.350976 23.754752 13.049856 32.457728C477.180928 763.650048 487.99744 768 500.9408 768c12.93312 0 23.759872-4.349952 32.45568-13.047808 8.69376-8.702976 13.04576-19.51744 13.04576-32.457728 0-12.941312-4.352-23.7568-13.04576-32.462848-8.695808-8.69376-19.52256-13.046784-32.45568-13.046784zM612.368384 286.83776c-11.830272-10.707968-25.99936-18.625536-42.493952-23.758848-16.52224-5.122048-34.366464-7.465984-53.541888-7.027712-19.641344 0.451584-38.042624 3.462144-55.209984 9.035776-17.181696 5.583872-32.12288 13.049856-44.838912 22.418432-12.716032 9.3696-22.754304 20.640768-30.11584 33.794048-7.361536 13.166592-11.039744 27.553792-11.039744 43.164672 0 11.157504 2.894848 19.638272 8.699904 25.428992 5.79072 5.80608 15.39072 8.930304 28.772352 9.368576 10.707968 0 21.185536-2.8928 31.453184-8.69888 10.257408-5.789696 15.392768-14.4896 15.392768-26.097664 0-11.595776 5.571584-20.074496 16.731136-25.428992 11.149312-5.353472 23.860224-8.251392 38.13888-8.69888 14.27968-0.44032 26.543104 2.569216 36.816896 9.032704 10.246144 6.472704 15.384576 18.852864 15.384576 37.138432 0 7.595008-0.66048 14.391296-2.000896 20.414464-1.338368 6.023168-3.580928 12.045312-6.692864 18.06848-3.137536 6.020096-7.474176 12.379136-13.060096 19.070976-5.583872 6.692864-12.370944 14.0544-20.4032 22.085632-10.708992 10.266624-20.077568 21.307392-28.109824 33.124352-8.030208 11.828224-14.722048 23.656448-20.077568 35.46112-5.353472 11.828224-9.48224 22.982656-12.38016 33.462272-2.90816 10.49088-4.352 19.305472-4.352 26.432512 0 13.84448 4.016128 23.762944 12.046336 29.784064 8.031232 6.020096 17.842176 9.03168 29.447168 9.03168 11.594752 0 21.408768-3.232768 29.438976-9.69728 8.032256-6.46144 12.04736-16.167936 12.04736-29.118464 0-8.466432 0.555008-16.280576 1.677312-23.416832 1.110016-7.12704 3.67616-14.385152 7.691264-21.75488 4.016128-7.353344 9.808896-15.601664 17.399808-24.754176 7.586816-9.143296 17.833984-19.964928 30.785536-32.458752 19.172352-18.292736 32.003072-35.3536 38.4768-51.196928 6.465536-15.828992 9.925632-32.673792 10.371072-50.526208 0.44544-20.511744-2.566144-38.581248-9.030656-54.202368-6.468608-15.609856-15.616-28.773376-27.423744-39.48032z" p-id="3797"></path><path d="M511.996928 64C264.559616 64 64 264.587264 64 512.003072 64 759.43424 264.559616 960 511.996928 960c247.414784 0 448.003072-200.56576 448.003072-447.996928C960 264.587264 759.412736 64 511.996928 64z m0 851.216384c-222.67392 0-403.202048-180.523008-403.202048-403.213312 0-222.67392 180.528128-403.190784 403.202048-403.190784s403.196928 180.516864 403.196928 403.190784c0 222.690304-180.521984 403.213312-403.196928 403.213312z" p-id="3798"></path></svg>